<!--?xml version="1.0" encoding="utf-8"?-->
<!-- Generator: Adobe Illustrator 18.1.1, SVG Export Plug-In . SVG Version: 6.00 Build 0)  -->

<svg version="1.1" id="_x32_" xmlns="http://www.w3.org/2000/svg" xmlns:xlink="http://www.w3.org/1999/xlink" x="0px" y="0px" viewBox="0 0 512 512" style="width: 256px; height: 256px; opacity: 1;" xml:space="preserve">
<style type="text/css">
	.st0{fill:#4B4B4B;}
</style>
<g>
	<path class="st0" d="M255.971,419.832c23.474,0,42.496-19.022,42.496-42.479c0-23.474-19.022-42.496-42.496-42.496
		c-23.458,0-42.479,19.021-42.479,42.496C213.492,400.81,232.513,419.832,255.971,419.832z" style="fill: rgb(74, 220, 158);"></path>
	<path class="st0" d="M461.148,210.286h-35.909c-0.506-31.166-21.846-57.231-50.727-64.865c0.158-1.869,0.274-3.746,0.274-5.64
		c-0.025-31.597-21.572-58.153-50.786-65.927c0.158-1.877,0.282-3.754,0.282-5.649C324.267,30.535,293.649,0.017,256.004,0
		c-37.653,0.008-68.27,30.535-68.287,68.204c0,1.894,0.125,3.772,0.282,5.649c-29.222,7.774-50.76,34.33-50.777,65.927
		c0,1.894,0.116,3.763,0.274,5.64c-28.897,7.625-50.303,33.683-50.81,64.865H43.185V323.17h35.07V512h129.572l6.338-30.65h83.637
		L304.14,512h129.572V323.17h35.103V210.286H461.148z M356.703,173.729h0.382c20.766,0,37.554,16.863,37.554,37.629
		c0,2.226-0.233,4.443-0.615,6.595h-73.96c-0.382-2.152-0.615-4.369-0.615-6.595c0-4.519,0.848-8.888,2.384-12.942
		C326.966,184.154,340.68,173.887,356.703,173.729z M306.2,102.153h0.308c20.766,0,37.628,16.862,37.628,37.628
		c0,4.519-0.847,8.896-2.384,12.959c-14.403,3.746-26.746,12.717-34.862,24.67h-0.69c-8.132-11.953-20.467-20.924-34.87-24.67
		c-1.537-4.062-2.376-8.44-2.376-12.959c0-4.518,0.839-8.888,2.376-12.949C276.463,112.502,290.102,102.311,306.2,102.153z
		 M293.624,211.358c0,2.226-0.224,4.443-0.606,6.595h-74.027c-0.382-2.152-0.615-4.369-0.615-6.595
		c0-4.519,0.764-8.805,2.301-12.875c5.208-14.329,18.848-24.596,34.937-24.754h0.773c16.089,0.158,29.728,10.425,34.945,24.754
		C292.86,202.552,293.624,206.838,293.624,211.358z M256.004,30.652c20.766,0,37.62,16.787,37.62,37.553
		c0,4.518-0.764,8.813-2.293,12.875c-14.486,3.754-26.83,12.726-34.945,24.753h-0.773c-8.115-12.027-20.458-20.998-34.937-24.753
		c-1.536-4.062-2.301-8.357-2.301-12.875C218.376,47.438,235.238,30.652,256.004,30.652z M205.493,102.153h0.307
		c16.023,0.158,29.662,10.35,34.879,24.678c1.528,4.062,2.367,8.431,2.367,12.949c0,4.519-0.839,8.896-2.367,12.959
		c-14.411,3.746-26.746,12.717-34.879,24.67h-0.69c-8.116-11.953-20.458-20.924-34.862-24.67c-1.536-4.062-2.376-8.44-2.376-12.959
		C167.873,119.014,184.652,102.153,205.493,102.153z M154.924,173.729h0.382c16.015,0.158,29.728,10.425,34.862,24.687
		c1.537,4.054,2.384,8.422,2.384,12.942c0,2.226-0.233,4.443-0.615,6.595h-74.035c-0.382-2.152-0.614-4.369-0.614-6.595
		C117.287,190.592,134.149,173.729,154.924,173.729z M403.053,481.35h-73.944l-6.338-30.659H189.204l-6.338,30.659h-73.96V315.503
		h294.147V481.35z M438.165,292.511H73.837v-51.566h28.2h29.82h46.126h54.947h46.142h54.947h46.126h29.745h28.276V292.511z" style="fill: rgb(74, 220, 158);"></path>
</g>
</svg>
