<!--?xml version="1.0" encoding="utf-8"?-->
<!-- Generator: Adobe Illustrator 18.1.1, SVG Export Plug-In . SVG Version: 6.00 Build 0)  -->

<svg version="1.1" id="_x32_" xmlns="http://www.w3.org/2000/svg" xmlns:xlink="http://www.w3.org/1999/xlink" x="0px" y="0px" viewBox="0 0 512 512" style="width: 256px; height: 256px; opacity: 1;" xml:space="preserve">
<style type="text/css">
	.st0{fill:#4B4B4B;}
</style>
<g>
	<path class="st0" d="M317.702,45.522c12.926-13.102,17.906-30.426,14.256-44.478c-14.09-3.461-31.354,1.735-44.282,14.829
		C274.746,28.958,269.758,46.3,273.42,60.334C287.493,63.82,304.766,58.616,317.702,45.522z" style="fill: rgb(30, 205, 87);"></path>
	<path class="st0" d="M485.708,475.24l-0.035,0.06l0.052-0.086c0,0,0,0-0.016,0.008C485.708,475.231,485.708,475.231,485.708,475.24
		z" style="fill: rgb(30, 205, 87);"></path>
	<path class="st0" d="M442.46,506.564c-0.017,0.008-0.051,0.017-0.085,0.026l-0.052,0.017L442.46,506.564z" style="fill: rgb(30, 205, 87);"></path>
	<path class="st0" d="M412.392,318.004c6.478-12,10.188-25.675,10.188-40.273c0-46.931-38.017-84.956-84.961-84.956h-51.353
		c22.516-10.05,38.029-30.888,38.029-55.05c0-33.94-30.577-61.461-68.298-61.461c-37.718,0-68.298,27.52-68.298,61.461
		c0,24.162,15.516,44.999,38.034,55.05H174.38c-46.931,0-85.028,38.017-85.032,84.956c-0.004,14.598,3.722,28.282,10.2,40.273
		c-49.909,7.914-88.054,51.059-88.058,103.16c0,13.649,2.059,26.41,6.426,37.913c6.518,17.385,18.778,31.428,34.765,40.291
		l0.068,0.034l0.226,0.119l-0.2-0.111C68.612,508.128,87.42,512,108.261,512h295.396c13.932,0,26.888-1.684,38.717-5.41l0.068-0.026
		c17.829-5.572,33.145-16.196,43.265-31.341c10.17-15.043,14.803-33.598,14.803-54.059
		C500.493,368.994,462.357,325.841,412.392,318.004z M137.432,240.852c9.491-9.487,22.465-15.29,36.948-15.29h163.24
		c14.47,0,27.453,5.803,36.871,15.29c9.509,9.504,15.304,22.41,15.304,36.879c0,14.487-5.794,27.393-15.304,36.889
		c-2.863,2.871-6.076,5.461-9.556,7.504H146.991c-3.483-2.111-6.696-4.632-9.56-7.504c-9.427-9.496-15.299-22.402-15.299-36.889
		C122.133,263.261,128.005,250.356,137.432,240.852z M463.417,447.395c-4.103,10.581-10.513,17.888-20.068,23.29
		c-9.572,5.393-22.752,8.53-39.691,8.53H108.261c-11.192,0-20.893-1.428-28.884-3.957c-12.021-3.829-20.149-9.837-25.952-18.308
		c-5.671-8.461-9.149-20.077-9.149-35.786c0-19.872,7.991-37.692,20.961-50.674c13.046-13.051,30.871-21.042,50.751-21.042h24.043
		h231.939h24.047c19.794,0,37.691,7.991,50.666,21.042c13.042,12.982,21.042,30.802,21.042,50.674
		C467.725,431.617,466.152,440.284,463.417,447.395z" style="fill: rgb(30, 205, 87);"></path>
</g>
</svg>
