<?xml version="1.0" standalone="no"?>
<!DOCTYPE svg PUBLIC "-//W3C//DTD SVG 20010904//EN"
 "http://www.w3.org/TR/2001/REC-SVG-20010904/DTD/svg10.dtd">
<svg version="1.0" xmlns="http://www.w3.org/2000/svg"
 width="256.000000pt" height="256.000000pt" viewBox="0 0 256.000000 256.000000"
 preserveAspectRatio="xMidYMid meet">
<metadata>
Created by potrace 1.14, written by Peter Selinger 2001-2017
</metadata>
<g transform="translate(0.000000,256.000000) scale(0.100000,-0.100000)"
fill="#000000" stroke="none">
<path d="M1016 2540 c-49 -25 -74 -47 -93 -83 -13 -26 -17 -28 -59 -21 -85 12
-165 -37 -195 -121 -10 -27 -19 -35 -37 -35 -77 0 -156 -101 -147 -187 7 -73
45 -124 111 -149 44 -17 63 -16 222 6 46 7 86 10 89 6 3 -3 7 -31 9 -63 5 -60
41 -153 75 -189 17 -18 18 -27 10 -63 -5 -23 -8 -47 -7 -54 7 -39 20 -56 45
-62 41 -9 108 -69 121 -110 24 -73 9 -153 -39 -203 l-22 -23 32 -42 c18 -23
52 -62 75 -86 108 -114 118 -238 29 -371 -20 -29 -28 -50 -21 -52 20 -6 533
-1 549 5 33 12 53 193 30 256 -9 22 -4 29 56 74 82 62 113 92 140 137 25 41
27 87 6 117 -14 21 -14 26 8 70 13 26 30 65 37 86 l12 38 56 -7 c32 -3 84 -11
117 -18 158 -31 257 27 270 160 9 86 -62 175 -149 187 -22 3 -31 11 -41 41
-27 79 -91 119 -183 115 -51 -3 -58 -1 -72 24 -71 117 -230 134 -330 36 -22
-22 -40 -46 -40 -53 0 -9 -16 -11 -58 -8 -92 7 -164 -39 -191 -121 -8 -24 -18
-33 -36 -35 -62 -5 -127 -63 -145 -131 -26 -98 37 -202 132 -218 24 -4 45 -7
48 -6 3 0 34 4 69 7 36 4 68 9 72 12 8 5 194 -118 220 -145 28 -30 37 -55 28
-78 -9 -25 -71 -73 -119 -93 -28 -12 -34 -10 -68 14 -20 15 -94 65 -163 111
-149 99 -232 178 -267 253 -33 72 -39 159 -18 243 20 79 103 249 122 249 7 0
62 -7 120 -16 144 -21 184 -15 239 41 47 47 62 90 52 152 -12 72 -84 140 -154
146 -15 1 -23 10 -27 29 -3 15 -22 45 -42 68 -42 46 -96 65 -161 56 -35 -5
-43 -2 -48 13 -3 11 -23 35 -45 55 -63 57 -152 71 -224 36z m103 -199 c11 -19
8 -182 -4 -201 -13 -21 -23 -9 -32 39 -11 53 -10 152 1 170 10 16 24 13 35 -8z
m-271 -78 c19 -29 46 -97 56 -145 14 -64 -59 25 -87 108 -23 64 -4 86 31 37z
m547 -4 c-6 -42 -68 -153 -88 -157 -15 -3 -15 1 -1 50 31 105 99 187 89 107z
m-743 -128 c18 -16 44 -48 57 -71 l23 -42 -28 15 c-33 17 -86 71 -103 105 -17
33 10 29 51 -7z m958 20 c0 -22 -95 -120 -117 -121 -19 0 -16 9 13 49 45 61
104 102 104 72z m-495 -223 c-14 -24 -36 -64 -47 -90 -12 -27 -26 -48 -30 -48
-14 0 -46 80 -52 133 l-7 47 81 0 81 0 -26 -42z m778 -138 c7 -32 1 -151 -8
-180 -8 -26 -22 -25 -30 1 -12 35 -13 161 -3 190 12 34 34 28 41 -11z m-279
-64 c23 -36 56 -127 56 -156 0 -24 0 -24 -19 -5 -29 29 -81 133 -81 161 0 31
23 31 44 0z m556 2 c0 -29 -55 -141 -81 -164 -18 -16 -19 -16 -19 4 0 12 7 42
16 68 30 89 84 148 84 92z m-766 -129 c24 -19 86 -100 86 -113 0 -14 -21 -3
-64 35 -53 47 -86 99 -63 99 8 0 26 -9 41 -21z m972 -8 c-15 -28 -102 -111
-116 -111 -18 0 6 44 49 90 54 58 92 70 67 21z m-406 -172 c0 -14 -47 -78 -69
-96 -12 -9 -24 -7 -56 9 -58 30 -128 85 -113 90 7 3 63 6 125 7 84 2 113 -1
113 -10z"/>
<path d="M538 1725 c-38 -14 -66 -37 -93 -78 -13 -21 -21 -23 -48 -17 -65 14
-159 -41 -172 -101 -5 -21 -14 -29 -38 -34 -18 -4 -47 -19 -66 -32 -83 -63
-77 -180 13 -247 30 -23 106 -29 183 -15 24 5 71 11 106 15 34 3 65 8 68 10 4
2 16 -26 28 -62 44 -133 139 -234 283 -297 48 -21 71 -29 133 -43 84 -19 224
-21 268 -5 15 6 27 7 27 3 0 -4 4 -1 9 6 22 35 -6 119 -50 151 -30 22 -30 22
-82 4 -77 -26 -226 -24 -290 5 -33 15 -46 26 -41 34 4 7 15 24 24 38 19 29 40
97 40 130 0 20 3 22 38 14 20 -4 64 -8 98 -9 51 0 66 4 97 28 20 15 42 37 48
48 15 29 19 98 7 128 -14 38 -73 88 -112 95 -25 5 -36 13 -40 30 -17 67 -114
124 -179 105 -23 -7 -30 -4 -38 14 -6 12 -29 36 -53 54 -49 38 -111 48 -168
28z m77 -176 c9 -14 7 -114 -3 -159 -8 -33 -9 -34 -20 -13 -13 24 -20 152 -8
171 9 15 23 15 31 1z m239 -75 c-6 -31 -35 -89 -63 -124 -20 -24 -21 -24 -21
-4 0 30 19 83 47 127 26 41 44 42 37 1z m-459 -27 c14 -29 28 -69 32 -88 5
-29 4 -32 -9 -22 -20 17 -66 103 -72 136 -8 48 23 31 49 -26z m-192 -77 c29
-23 72 -88 64 -97 -8 -8 -107 87 -107 103 0 19 13 17 43 -6z m837 9 c0 -16
-99 -114 -106 -106 -9 9 33 73 63 97 29 23 43 25 43 9z m-287 -158 c27 -1 28
-3 23 -37 -7 -43 -27 -83 -54 -107 -19 -18 -21 -18 -47 10 -38 41 -78 111 -72
127 5 11 20 14 64 11 32 -2 71 -4 86 -4z"/>
<path d="M780 579 c-36 -8 -69 -35 -81 -68 -11 -27 -1 -62 41 -156 15 -33 53
-117 85 -187 31 -70 66 -135 77 -145 19 -17 54 -18 510 -20 484 -3 489 -3 518
18 15 12 31 29 33 38 3 9 24 66 47 126 112 298 116 320 71 366 -23 23 -39 29
-73 30 -233 4 -1204 3 -1228 -2z"/>
</g>
</svg>
